<mxfile host="app.diagrams.net" modified="2021-01-31T05:26:49.657Z" agent="5.0 (Macintosh; Intel Mac OS X 10_15_4) AppleWebKit/605.1.15 (KHTML, like Gecko) Version/13.1 Safari/605.1.15" etag="5gJWnwApF3dSya2LbV1Q" version="14.2.9" type="github">
  <diagram id="d6irDFDjAoip-7uJlAbn" name="Page-1">
    <mxGraphModel dx="655" dy="393" grid="1" gridSize="10" guides="1" tooltips="1" connect="1" arrows="1" fold="1" page="1" pageScale="1" pageWidth="827" pageHeight="1169" math="0" shadow="0">
      <root>
        <mxCell id="0" />
        <mxCell id="1" parent="0" />
        <mxCell id="4AfiNTJ6NtvjaSJbLYDB-11" style="edgeStyle=orthogonalEdgeStyle;rounded=0;orthogonalLoop=1;jettySize=auto;html=1;exitX=1;exitY=0.5;exitDx=0;exitDy=0;entryX=0;entryY=0.5;entryDx=0;entryDy=0;" edge="1" parent="1" source="4AfiNTJ6NtvjaSJbLYDB-1" target="4AfiNTJ6NtvjaSJbLYDB-6">
          <mxGeometry relative="1" as="geometry" />
        </mxCell>
        <mxCell id="4AfiNTJ6NtvjaSJbLYDB-1" value="keyboard&lt;br&gt;mic&lt;br&gt;mouse&lt;br&gt;network&lt;br&gt;cpu&lt;br&gt;gpu&lt;br&gt;speaker&lt;br&gt;ssd&lt;br&gt;hdd&lt;br&gt;memory" style="rounded=0;whiteSpace=wrap;html=1;" vertex="1" parent="1">
          <mxGeometry x="41" y="80" width="80" height="360" as="geometry" />
        </mxCell>
        <mxCell id="4AfiNTJ6NtvjaSJbLYDB-13" style="edgeStyle=orthogonalEdgeStyle;rounded=0;orthogonalLoop=1;jettySize=auto;html=1;exitX=1;exitY=0.5;exitDx=0;exitDy=0;" edge="1" parent="1" source="4AfiNTJ6NtvjaSJbLYDB-6">
          <mxGeometry relative="1" as="geometry">
            <mxPoint x="550" y="260.33333333333337" as="targetPoint" />
          </mxGeometry>
        </mxCell>
        <mxCell id="4AfiNTJ6NtvjaSJbLYDB-6" value="&lt;p style=&quot;margin-top: 0pt ; margin-bottom: 0pt ; margin-left: 0in ; direction: ltr ; unicode-bidi: embed ; word-break: normal ; font-size: 14px&quot;&gt;&lt;font style=&quot;font-size: 14px&quot;&gt;・Boot loader(start OS)&lt;/font&gt;&lt;/p&gt;&lt;p style=&quot;margin-top: 0pt ; margin-bottom: 0pt ; margin-left: 0in ; direction: ltr ; unicode-bidi: embed ; word-break: normal ; font-size: 14px&quot;&gt;&lt;font style=&quot;font-size: 14px&quot;&gt;&lt;br&gt;&lt;/font&gt;&lt;/p&gt;&lt;p style=&quot;margin-top: 0pt ; margin-bottom: 0pt ; margin-left: 0in ; direction: ltr ; unicode-bidi: embed ; word-break: normal ; font-size: 14px&quot;&gt;&lt;/p&gt;&lt;p style=&quot;margin-top: 0pt ; margin-bottom: 0pt ; margin-left: 0in ; direction: ltr ; unicode-bidi: embed ; word-break: normal ; font-size: 14px&quot;&gt;&lt;font style=&quot;font-size: 14px&quot;&gt;・Kernel(process, time, space management/interrupt processing/file system/network)&lt;/font&gt;&lt;/p&gt;&lt;p style=&quot;margin-top: 0pt ; margin-bottom: 0pt ; margin-left: 0in ; direction: ltr ; unicode-bidi: embed ; word-break: normal ; font-size: 14px&quot;&gt;&lt;font style=&quot;font-size: 14px&quot;&gt;&lt;br&gt;&lt;/font&gt;&lt;/p&gt;&lt;p style=&quot;margin-top: 0pt ; margin-bottom: 0pt ; margin-left: 0in ; direction: ltr ; unicode-bidi: embed ; word-break: normal ; font-size: 14px&quot;&gt;&lt;/p&gt;&lt;p style=&quot;margin-top: 0pt ; margin-bottom: 0pt ; margin-left: 0in ; direction: ltr ; unicode-bidi: embed ; word-break: normal ; font-size: 14px&quot;&gt;&lt;font style=&quot;font-size: 14px&quot;&gt;・Daemon(waiting UNIX program)&lt;/font&gt;&lt;/p&gt;&lt;p style=&quot;margin-top: 0pt ; margin-bottom: 0pt ; margin-left: 0in ; direction: ltr ; unicode-bidi: embed ; word-break: normal ; font-size: 14px&quot;&gt;&lt;font style=&quot;font-size: 14px&quot;&gt;&lt;br&gt;&lt;/font&gt;&lt;/p&gt;&lt;p style=&quot;margin-top: 0pt ; margin-bottom: 0pt ; margin-left: 0in ; direction: ltr ; unicode-bidi: embed ; word-break: normal ; font-size: 14px&quot;&gt;&lt;/p&gt;&lt;p style=&quot;margin-top: 0pt ; margin-bottom: 0pt ; margin-left: 0in ; direction: ltr ; unicode-bidi: embed ; word-break: normal ; font-size: 14px&quot;&gt;&lt;font style=&quot;font-size: 14px&quot;&gt;・Shell(program that conveys input to a computer)&lt;/font&gt;&lt;/p&gt;&lt;p style=&quot;margin-top: 0pt ; margin-bottom: 0pt ; margin-left: 0in ; direction: ltr ; unicode-bidi: embed ; word-break: normal ; font-size: 14px&quot;&gt;&lt;font style=&quot;font-size: 14px&quot;&gt;&lt;br&gt;&lt;/font&gt;&lt;/p&gt;&lt;p style=&quot;margin-top: 0pt ; margin-bottom: 0pt ; margin-left: 0in ; direction: ltr ; unicode-bidi: embed ; word-break: normal ; font-size: 14px&quot;&gt;&lt;/p&gt;&lt;p style=&quot;margin-top: 0pt ; margin-bottom: 0pt ; margin-left: 0in ; direction: ltr ; unicode-bidi: embed ; word-break: normal ; font-size: 14px&quot;&gt;&lt;font style=&quot;font-size: 14px&quot;&gt;・Application(package)&lt;/font&gt;&lt;/p&gt;&lt;p style=&quot;margin-top: 0pt ; margin-bottom: 0pt ; margin-left: 0in ; direction: ltr ; unicode-bidi: embed ; word-break: normal ; font-size: 14px&quot;&gt;&lt;font style=&quot;font-size: 14px&quot;&gt;&lt;br&gt;&lt;/font&gt;&lt;/p&gt;&lt;p style=&quot;margin-top: 0pt ; margin-bottom: 0pt ; margin-left: 0in ; direction: ltr ; unicode-bidi: embed ; word-break: normal ; font-size: 14px&quot;&gt;&lt;/p&gt;&lt;p style=&quot;margin-top: 0pt ; margin-bottom: 0pt ; margin-left: 0in ; direction: ltr ; unicode-bidi: embed ; word-break: normal ; font-size: 14px&quot;&gt;&lt;font style=&quot;font-size: 14px&quot;&gt;・Desktop environment(setting)&lt;/font&gt;&lt;/p&gt;&lt;p style=&quot;margin-top: 0pt ; margin-bottom: 0pt ; margin-left: 0in ; direction: ltr ; unicode-bidi: embed ; word-break: normal ; font-size: 14px&quot;&gt;&lt;font style=&quot;font-size: 14px&quot;&gt;&lt;br&gt;&lt;/font&gt;&lt;/p&gt;&lt;p style=&quot;margin-top: 0pt ; margin-bottom: 0pt ; margin-left: 0in ; direction: ltr ; unicode-bidi: embed ; word-break: normal ; font-size: 14px&quot;&gt;&lt;/p&gt;&lt;p style=&quot;margin-top: 0pt ; margin-bottom: 0pt ; margin-left: 0in ; direction: ltr ; unicode-bidi: embed ; word-break: normal ; font-size: 14px&quot;&gt;&lt;font style=&quot;font-size: 14px&quot;&gt;・Wifi(access the internet)&lt;/font&gt;&lt;/p&gt;&lt;p style=&quot;margin-top: 0pt ; margin-bottom: 0pt ; margin-left: 0in ; direction: ltr ; unicode-bidi: embed ; word-break: normal&quot;&gt;&lt;/p&gt;" style="whiteSpace=wrap;html=1;aspect=fixed;" vertex="1" parent="1">
          <mxGeometry x="190" y="100" width="320" height="320" as="geometry" />
        </mxCell>
        <mxCell id="4AfiNTJ6NtvjaSJbLYDB-8" value="&lt;p style=&quot;color: rgb(0 , 0 , 0) ; font-style: normal ; letter-spacing: normal ; text-indent: 0px ; text-transform: none ; word-spacing: 0px ; text-decoration: none ; margin-top: 0pt ; margin-bottom: 0pt ; margin-left: 0in ; text-align: center ; direction: ltr ; unicode-bidi: embed ; word-break: normal ; font-size: 15px&quot;&gt;&lt;br&gt;&lt;/p&gt;&lt;p style=&quot;color: rgb(0 , 0 , 0) ; font-style: normal ; letter-spacing: normal ; text-indent: 0px ; text-transform: none ; word-spacing: 0px ; text-decoration: none ; margin-top: 0pt ; margin-bottom: 0pt ; margin-left: 0in ; text-align: center ; direction: ltr ; unicode-bidi: embed ; word-break: normal ; font-size: 15px&quot;&gt;&lt;span style=&quot;color: black&quot;&gt;&lt;font style=&quot;font-size: 15px&quot;&gt;Cursol&lt;/font&gt;&lt;/span&gt;&lt;/p&gt;&lt;p style=&quot;color: rgb(0 , 0 , 0) ; font-style: normal ; letter-spacing: normal ; text-indent: 0px ; text-transform: none ; word-spacing: 0px ; text-decoration: none ; margin-top: 0pt ; margin-bottom: 0pt ; margin-left: 0in ; text-align: center ; direction: ltr ; unicode-bidi: embed ; word-break: normal ; font-size: 15px&quot;&gt;&lt;span style=&quot;color: black&quot;&gt;&lt;font style=&quot;font-size: 15px&quot;&gt;Menu&lt;/font&gt;&lt;/span&gt;&lt;/p&gt;&lt;p style=&quot;color: rgb(0 , 0 , 0) ; font-style: normal ; letter-spacing: normal ; text-indent: 0px ; text-transform: none ; word-spacing: 0px ; text-decoration: none ; margin-top: 0pt ; margin-bottom: 0pt ; margin-left: 0in ; text-align: center ; direction: ltr ; unicode-bidi: embed ; word-break: normal ; font-size: 15px&quot;&gt;&lt;font style=&quot;font-size: 15px&quot;&gt;&lt;span style=&quot;color: black&quot;&gt;Butt&lt;/span&gt;&lt;span style=&quot;color: black&quot;&gt;on&lt;/span&gt;&lt;/font&gt;&lt;/p&gt;&lt;p style=&quot;color: rgb(0 , 0 , 0) ; font-style: normal ; letter-spacing: normal ; text-indent: 0px ; text-transform: none ; word-spacing: 0px ; text-decoration: none ; margin-top: 0pt ; margin-bottom: 0pt ; margin-left: 0in ; text-align: center ; direction: ltr ; unicode-bidi: embed ; word-break: normal ; font-size: 15px&quot;&gt;&lt;span style=&quot;color: black&quot;&gt;&lt;font style=&quot;font-size: 15px&quot;&gt;Window&lt;/font&gt;&lt;/span&gt;&lt;/p&gt;" style="rounded=0;whiteSpace=wrap;html=1;" vertex="1" parent="1">
          <mxGeometry x="550" y="80" width="120" height="350" as="geometry" />
        </mxCell>
        <mxCell id="4AfiNTJ6NtvjaSJbLYDB-9" value="zoom" style="rounded=1;whiteSpace=wrap;html=1;" vertex="1" parent="1">
          <mxGeometry x="550" y="100" width="120" height="60" as="geometry" />
        </mxCell>
      </root>
    </mxGraphModel>
  </diagram>
</mxfile>
